<svg xmlns="http://www.w3.org/2000/svg" width="26" height="26" viewBox="0 0 26 26" fill="none">
<path d="M23.1111 0H2.88889C1.29278 0 0 1.29278 0 2.88889V23.1111C0 24.7072 1.29278 26 2.88889 26H23.1111C24.7072 26 26 24.7072 26 23.1111V2.88889C26 1.29278 24.7072 0 23.1111 0ZM6.84378 20.2222C5.837 20.2222 5.02089 19.4061 5.02089 18.3993V11.9326C5.02233 10.9272 5.83844 10.1111 6.84378 10.1111C7.85056 10.1111 8.66667 10.9272 8.66667 11.934V18.4008C8.66667 19.4061 7.85056 20.2222 6.84378 20.2222ZM6.78022 8.25789C5.66656 8.25789 4.92267 7.51544 4.92267 6.52456C4.92267 5.53367 5.66511 4.79122 6.903 4.79122C8.01667 4.79122 8.76056 5.53367 8.76056 6.52456C8.76056 7.51544 8.01811 8.25789 6.78022 8.25789ZM19.903 20.2222C18.9294 20.2222 18.1393 19.4321 18.1393 18.4586V14.6958C18.1393 13.1676 17.199 13 16.8466 13C16.4941 13 15.3183 13.0506 15.3183 14.6958V18.4586C15.3183 19.4321 14.5282 20.2222 13.5547 20.2222H13.4377C12.4641 20.2222 11.674 19.4321 11.674 18.4586V11.934C11.674 10.9272 12.4901 10.1111 13.4969 10.1111C14.5037 10.1111 15.3198 10.9272 15.3198 11.934C15.3198 11.934 15.7271 10.1111 18.4947 10.1111C20.2554 10.1111 21.6667 11.5223 21.6667 14.6958V18.4586C21.6667 19.4321 20.8766 20.2222 19.903 20.2222Z" fill="#5F6368"/>
</svg>