<svg width="30" height="30" viewBox="0 0 30 30" fill="none" xmlns="http://www.w3.org/2000/svg">
<circle cx="15" cy="15" r="15" fill="white"/>
<path d="M18.6667 8H10.3333C8.4925 8 7 9.393 7 11.1111V18.8889C7 20.607 8.4925 22 10.3333 22H15.0175V16.5859H13.065V14.4664H15.0175V12.907C15.0175 11.0994 16.2017 10.114 17.93 10.114C18.5125 10.1124 19.0942 10.1404 19.6733 10.1957V12.0857H18.4833C17.5417 12.0857 17.3583 12.501 17.3583 13.1139V14.4633H19.6083L19.3158 16.5828H17.345V22H18.6667C20.5075 22 22 20.607 22 18.8889V11.1111C22 9.393 20.5075 8 18.6667 8Z" fill="#9A0000"/>
</svg>
