<svg width="30" height="30" viewBox="0 0 30 30" fill="none" xmlns="http://www.w3.org/2000/svg">
<circle cx="15" cy="15" r="15" fill="white"/>
<path d="M21.3333 8H9.66667C8.74583 8 8 8.69611 8 9.55556V20.4444C8 21.3039 8.74583 22 9.66667 22H21.3333C22.2542 22 23 21.3039 23 20.4444V9.55556C23 8.69611 22.2542 8 21.3333 8ZM11.9483 18.8889C11.3675 18.8889 10.8967 18.4494 10.8967 17.9073V14.4252C10.8975 13.8839 11.3683 13.4444 11.9483 13.4444C12.5292 13.4444 13 13.8839 13 14.426V17.9081C13 18.4494 12.5292 18.8889 11.9483 18.8889ZM11.9117 12.4466C11.2692 12.4466 10.84 12.0468 10.84 11.5132C10.84 10.9797 11.2683 10.5799 11.9825 10.5799C12.625 10.5799 13.0542 10.9797 13.0542 11.5132C13.0542 12.0468 12.6258 12.4466 11.9117 12.4466ZM19.4825 18.8889C18.9208 18.8889 18.465 18.4634 18.465 17.9392V15.9131C18.465 15.0902 17.9225 15 17.7192 15C17.5158 15 16.8375 15.0272 16.8375 15.9131V17.9392C16.8375 18.4634 16.3817 18.8889 15.82 18.8889H15.7525C15.1908 18.8889 14.735 18.4634 14.735 17.9392V14.426C14.735 13.8839 15.2058 13.4444 15.7867 13.4444C16.3675 13.4444 16.8383 13.8839 16.8383 14.426C16.8383 14.426 17.0733 13.4444 18.67 13.4444C19.6858 13.4444 20.5 14.2043 20.5 15.9131V17.9392C20.5 18.4634 20.0442 18.8889 19.4825 18.8889Z" fill="#9A0000"/>
</svg>
