<svg width="30" height="30" viewBox="0 0 30 30" fill="none" xmlns="http://www.w3.org/2000/svg">
<circle cx="15" cy="15" r="15" fill="white"/>
<path d="M15 7C10.5826 7 7 10.5826 7 15C7 19.4174 10.5826 23 15 23C19.4174 23 23 19.4174 23 15C23 10.5826 19.4174 7 15 7ZM15.6435 21.5739C15.6087 21.5739 15.5739 21.5739 15.5217 21.5913V17.8174C16.4261 17.8 17.2435 17.7826 17.9913 17.7304C17.3304 19.7652 16.0957 21.1217 15.6435 21.5739ZM14.3565 21.5739C13.887 21.1043 12.6696 19.7478 12.0087 17.7304C12.7391 17.7826 13.5739 17.8174 14.4783 17.8174V21.5913C14.4435 21.5913 14.4087 21.5739 14.3565 21.5739ZM8.3913 15C8.3913 14.5652 8.44348 14.1304 8.51304 13.713C8.89565 13.6435 9.62609 13.5391 10.6522 13.4348C10.5652 13.9391 10.513 14.4609 10.513 15.0174C10.513 15.5739 10.5652 16.0957 10.6348 16.5826C9.62609 16.4783 8.87826 16.3739 8.49565 16.3043C8.44348 15.8696 8.3913 15.4348 8.3913 15ZM11.5739 15C11.5739 14.4087 11.6435 13.8522 11.7478 13.3304C12.5478 13.2783 13.4522 13.2261 14.4783 13.2261V16.7739C13.4696 16.7565 12.5478 16.7217 11.7304 16.6522C11.6435 16.1478 11.5739 15.5913 11.5739 15ZM15.6261 8.42609C16.0957 8.89565 17.2957 10.287 17.9739 12.2696C17.2435 12.2174 16.4261 12.1826 15.5217 12.1826V8.4087C15.5565 8.4087 15.5913 8.42609 15.6261 8.42609ZM14.4783 8.4087V12.1826C13.5739 12.2 12.7565 12.2174 12.0261 12.2696C12.687 10.287 13.9043 8.89565 14.3565 8.42609C14.4087 8.42609 14.4435 8.4087 14.4783 8.4087ZM15.5217 16.7739V13.2261C16.5304 13.2435 17.4522 13.2783 18.2522 13.3304C18.3565 13.8522 18.4261 14.4087 18.4261 15C18.4261 15.5913 18.3739 16.1478 18.2696 16.6696C17.4696 16.7217 16.5478 16.7565 15.5217 16.7739ZM19.3304 13.4348C20.3565 13.5391 21.087 13.6435 21.4696 13.713C21.5565 14.1304 21.6087 14.5652 21.6087 15C21.6087 15.4348 21.5565 15.8696 21.487 16.287C21.1043 16.3565 20.3739 16.4609 19.3478 16.5652C19.4348 16.0609 19.4696 15.5391 19.4696 14.9826C19.4696 14.4609 19.4174 13.9217 19.3304 13.4348ZM21.1565 12.6C20.6696 12.5304 19.9739 12.4435 19.087 12.3565C18.6696 10.8609 17.9391 9.66087 17.3304 8.8087C19.087 9.46957 20.4783 10.8609 21.1565 12.6ZM12.6696 8.8087C12.0435 9.64348 11.3304 10.8435 10.913 12.3391C10.0435 12.4087 9.34783 12.513 8.84348 12.5826C9.52174 10.8609 10.9304 9.46957 12.6696 8.8087ZM8.84348 17.4C9.33043 17.4696 10.0261 17.5565 10.8957 17.6435C11.313 19.1391 12.0087 20.3391 12.6348 21.1739C10.8957 20.4957 9.52174 19.1217 8.84348 17.4ZM17.3652 21.1739C17.9913 20.3391 18.687 19.1565 19.1043 17.6609C19.9739 17.5913 20.6696 17.487 21.1565 17.4174C20.4783 19.1217 19.1043 20.4957 17.3652 21.1739Z" fill="#9A0000"/>
</svg>
